<?xml version="1.0" encoding="utf-8"?>
<!-- Generator: Adobe Illustrator 16.0.0, SVG Export Plug-In . SVG Version: 6.00 Build 0)  -->
<!DOCTYPE svg PUBLIC "-//W3C//DTD SVG 1.1//EN" "http://www.w3.org/Graphics/SVG/1.1/DTD/svg11.dtd">
<svg version="1.1" id="图层_1" xmlns="http://www.w3.org/2000/svg" xmlns:xlink="http://www.w3.org/1999/xlink" x="0px" y="0px"
	 width="57px" height="57px" viewBox="0 0 57 57" enable-background="new 0 0 57 57" xml:space="preserve">
<g>
	<path d="M7.732,2.68l-0.87,0.957v0.058h7.948c-0.58-1.015-1.566-2.146-2.437-2.756c4.032-0.145,6.904,1.161,5.541,2.118
		l-0.928,0.638h7.251l1.189-1.102L26.877,5H6.862v7.426c0,5.889-1.741,11.052-5.859,14.33c1.479-4.351,1.711-7.31,1.711-14.678V2.1
		L7.732,2.68z M18.204,18.895v1.45h5.772l1.16-1.102l1.45,2.407h-8.412c-0.203,2.466-1.508,4.09-3.249,4.902
		c-0.986,0.493-1.856,0.232-2.408-0.348l-2.175-2.668c2.233,0.493,3.307-0.348,3.597-1.886H7.007l-0.696-1.305h7.716v-1.45H8.313
		L7.616,17.59h6.411V16.4c-2.088,0-4.322-0.058-6.671-0.29c5.598-0.841,9.775-1.538,13.749-2.843l2.089,1.653
		c0.261,0.232,0.29,0.87-0.232,0.899c-1.45,0.174-3.045,0.29-4.757,0.435v1.334h3.51l1.218-1.103l1.421,2.408H18.204z M10.43,13.703
		v-2.582c-0.958,1.16-2.118,2.03-3.423,2.611c1.015-1.479,1.682-3.249,2.088-5.222H8.081L7.414,7.205h3.017v-2.03L14.839,5.9
		l-0.928,0.667v0.638h0.812l0.957-0.783l1.218,2.088h-2.987v0.203c2.204,0.638,3.277,1.393,2.523,2.176l-1.595,1.595
		c-0.174-0.841-0.522-1.77-0.928-2.582v3.8H10.43z M19.364,13.064v-1.972c-1.131,1.16-2.611,2.117-4.264,2.64
		c1.653-1.915,2.378-3.307,3.017-5.222h-0.841l-0.638-1.305h2.727v-2.03l4.38,0.725l-0.899,0.667v0.638h1.363l0.986-0.783
		l1.247,2.088h-2.988c1.044,1.219,2.088,1.915,3.394,2.379l-1.393,2.437c-0.232,0.406-0.696,0.435-1.015,0.029
		c-0.725-0.928-1.276-2.64-1.595-4.38v4.09H19.364z"/>
	<path d="M35.224,13.006l3.104,1.161c0.898,0.319,0.87,1.073,0.58,1.624c-1.973,3.887-5.628,6.904-8.876,8.325
		C32.236,21.505,34.238,16.807,35.224,13.006z M50.278,6.915H38.27c-1.827,3.075-4.38,5.714-7.077,7.281
		c2.32-3.684,3.887-8.354,4.699-13.372l3.626,0.58c1.073,0.174,0.928,0.783,0.754,1.334c-0.349,0.986-0.754,1.943-1.247,2.872
		h11.457l1.248-1.363l3.887,2.988l-1.625,0.667l-5.366,4.67L50.278,6.915z M41.373,8.308l5.599,0.638l-1.421,0.957v8.18
		c0,4.496-1.045,7.6-3.481,8.499c-0.87,0.319-1.508,0.319-2.03-0.377l-2.494-3.19c3.19,0.377,3.828-1.016,3.828-4.757V8.308z
		 M51.062,24.145c-0.551-3.858-2.146-8.006-3.944-10.442c4.814,2.088,9.485,7.107,7.164,8.238L51.062,24.145z"/>
	<path d="M3.758,40.105H1.641l-0.667-1.305h2.785v-7.919l5.337,0.609l-1.16,0.985v6.324h0.261l1.189-1.103l1.45,2.407h-2.9v16.187
		H3.758V40.105z M19.393,49.591h-8.731l-0.696-1.305h9.427v-1.799l5.337,0.783l-1.16,0.639v0.377h0.986l0.986-0.813l1.393,2.117
		H23.57v2.06c0,3.017-0.87,4.293-2.292,4.902c-0.928,0.406-1.393,0.261-2.001-0.493l-2.205-2.669c1.45,0.262,2.32,0.059,2.32-1.682
		V49.591z M16.463,44.573h-1.334v2.233h-3.771V35.871l4.496,0.783l-0.725,0.638h1.334v-1.914h-5.569l-0.696-1.306h6.265v-3.133
		l4.931,0.522l-0.754,0.667v1.943h1.827c-0.261-1.276-0.783-2.407-1.276-3.133c2.611,0.203,4.757,1.189,3.626,2.03l-1.595,1.103
		h1.305l0.958-0.813l1.392,2.118h-6.236v1.914h1.131l0.783-1.247l3.974,1.363l-0.928,1.306v7.773h-3.829v-1.914h-1.131v1.508h-4.177
		V44.573z M16.435,53.42l-2.495,2.002c-0.435-2.233-1.305-4.09-2.437-5.425C15.825,50.229,18.175,52.115,16.435,53.42z
		 M15.129,40.222h1.334v-1.624h-1.334V40.222z M15.129,43.181h1.334v-1.566h-1.334V43.181z M20.641,38.598v1.624h1.131v-1.624
		H20.641z M20.641,43.181h1.131v-1.566h-1.131V43.181z"/>
	<path d="M29.887,36.161c1.712-0.493,3.452-1.856,4.235-4.352c0.231,0.87,0.377,1.625,0.464,2.292h7.223
		c-0.493-1.219-1.218-2.233-2.233-3.22c4.496-0.087,7.426,1.334,6.033,2.291l-1.421,0.929h6.643l0.783-1.363l4.264,3.133
		l-5.453,3.133l0.348-3.51H34.702c0.231,4.524-2.32,4.293-3.017,3.248L29.887,36.161z M40.416,43.471
		c-0.928-0.609-1.798-1.276-2.581-2.002c-1.915,1.77-4.322,3.278-7.078,4.148c2.93-2.523,5.076-6.323,6.613-9.862l2.959,0.928
		c0.726,0.232,0.986,0.755,0.552,1.393c-0.088,0.146-0.203,0.232-0.262,0.349h5.25l1.393-1.16l4.468,2.813l-1.654,0.725
		c-0.841,0.813-1.856,1.625-2.987,2.379c2.843,0.522,5.802,0.754,8.673,0.667l-1.537,3.046c-0.493,0.928-1.131,0.813-1.77,0.813
		c-2.697-0.087-5.976-1.016-8.963-2.466c-1.45,0.667-3.017,1.276-4.67,1.77l1.711,0.231l-1.16,0.899v0.087h6.99l0.813-1.131
		l4.206,1.566l-0.986,1.334v6.788h-4.177v-1.306h-6.846v1.306h-4.177V47.88c-1.653,0.261-3.423,0.464-5.192,0.522
		C33.773,47.154,37.516,45.298,40.416,43.471z M38.792,40.57c1.189,0.58,2.437,1.073,3.771,1.508c1.16-0.841,2.06-1.624,2.669-2.291
		h-5.743C39.285,40.048,39.053,40.309,38.792,40.57z M39.372,54.116h6.846V49.62h-6.846V54.116z"/>
</g>
</svg>
